<svg width="135" height="20" viewBox="0 0 135 20" fill="none" xmlns="http://www.w3.org/2000/svg">
<path fill-rule="evenodd" clip-rule="evenodd" d="M0 4.85327H5.11916C7.02209 4.85327 9.83629 5.3866 9.83629 8.5866C9.83629 10.3199 8.65701 11.5466 6.91489 11.8399V11.8933C8.89823 12.0799 10.2651 13.4133 10.2651 15.2266C10.2651 18.9066 6.94169 19.4399 5.09236 19.4399H0V4.85327ZM2.94821 10.7466H4.15429C5.38718 10.7466 6.91489 10.4799 6.91489 8.95994C6.91489 7.27994 5.41398 7.1466 4.07389 7.1466H2.94821V10.7466ZM2.94821 17.1466H4.34191C5.7088 17.1466 7.37052 16.7999 7.37052 15.1199C7.37052 13.2266 5.81601 12.9333 4.34191 12.9333H2.94821V17.1466Z" fill="white"/>
<path fill-rule="evenodd" clip-rule="evenodd" d="M11.605 8.69342H14.0976V11.1201H14.1244C14.2584 10.1334 15.4108 8.42676 17.0994 8.42676C17.3674 8.42676 17.6622 8.42676 17.957 8.50676V11.3334C17.7158 11.1734 17.2066 11.0934 16.6973 11.0934C14.4192 11.0934 14.4192 13.9468 14.4192 15.4668V19.4134H11.605V8.69342Z" fill="white"/>
<mask id="mask0" mask-type="alpha" maskUnits="userSpaceOnUse" x="0" y="0" width="135" height="20">
<path fill-rule="evenodd" clip-rule="evenodd" d="M0 19.9733H134.411V0H0V19.9733Z" fill="white"/>
</mask>
<g mask="url(#mask0)">
<path fill-rule="evenodd" clip-rule="evenodd" d="M19.1636 19.4666H21.9778V8.69322H19.1636V19.4666ZM20.5841 4.05322C21.3077 4.05322 21.9242 4.66656 21.9242 5.38656C21.9242 6.13322 21.3077 6.71989 20.5841 6.71989C19.8604 6.71989 19.244 6.10656 19.244 5.38656C19.244 4.63989 19.8336 4.05322 20.5841 4.05322Z" fill="white"/>
<path fill-rule="evenodd" clip-rule="evenodd" d="M25.301 10.72H23.2104L23.4249 8.66667H25.301V7.36L28.1152 4.58667V8.69334H30.6078L30.3934 10.7467H28.1152V15.76C28.1152 16.6667 28.3564 17.52 29.4285 17.52C29.9377 17.52 30.4738 17.4133 30.7418 17.2267L30.7954 19.44C30.2057 19.6 29.5625 19.7067 28.7316 19.7067C26.5339 19.7067 25.301 18.3467 25.301 16.2133V10.72Z" fill="white"/>
<path fill-rule="evenodd" clip-rule="evenodd" d="M32.0015 19.4666H34.8157V8.69322H32.0015V19.4666ZM33.422 4.05322C34.1456 4.05322 34.7621 4.66656 34.7621 5.38656C34.7621 6.13322 34.1456 6.71989 33.422 6.71989C32.6983 6.71989 32.0819 6.10656 32.0819 5.38656C32.0819 4.63989 32.6983 4.05322 33.422 4.05322Z" fill="white"/>
<path fill-rule="evenodd" clip-rule="evenodd" d="M43.4192 10.9332C42.5616 10.6398 42.1327 10.4798 41.1143 10.4798C40.3638 10.4798 39.4525 10.7465 39.4525 11.6798C39.4525 13.3865 44.3305 12.2932 44.3305 16.1865C44.3305 18.6932 42.0791 19.7065 39.801 19.7065C38.7289 19.7065 37.63 19.5198 36.6115 19.2532L36.9868 16.9598C37.8712 17.3865 38.5949 17.6532 39.533 17.6532C40.2566 17.6532 41.3823 17.3865 41.3823 16.3465C41.3823 14.2398 36.4775 15.6798 36.4775 11.7865C36.4775 9.46651 38.5145 8.42651 40.7122 8.42651C42.0255 8.42651 42.8832 8.63985 43.7677 8.82651L43.4192 10.9332Z" fill="white"/>
<path fill-rule="evenodd" clip-rule="evenodd" d="M45.7241 4.82658L48.5383 2.74658V10.1599H48.5919C49.2888 9.11992 50.5217 8.45325 51.9958 8.45325C54.5687 8.45325 55.6676 10.2666 55.6676 12.6932V19.4932H52.8534V13.7599C52.8534 12.4266 52.8266 10.6666 51.0309 10.6666C48.994 10.6666 48.5651 12.8532 48.5651 14.2399V19.4932H45.7509V4.82658" fill="white"/>
<path fill-rule="evenodd" clip-rule="evenodd" d="M69.5239 12.2402C69.5239 13.6535 68.3715 14.7735 66.9778 14.7735C65.5573 14.7735 64.4048 13.6268 64.4048 12.2402C64.4048 10.8268 65.5573 9.68018 66.9778 9.68018C68.3715 9.68018 69.5239 10.8268 69.5239 12.2402Z" fill="white"/>
<path fill-rule="evenodd" clip-rule="evenodd" d="M64.405 19.5467C65.2091 19.8133 66.0667 19.9733 66.9512 19.9733C71.2395 19.9733 74.7238 16.5067 74.7238 12.24C74.7238 7.94667 71.2395 4.50667 66.9512 4.50667C65.5039 4.50667 64.1638 4.90667 63.0113 5.57333V0H59.2055V11.4667C59.1787 11.7333 59.1519 11.9733 59.1519 12.24C59.1519 15.0933 60.7064 17.5733 63.0113 18.9333V12.2667V12.24C63.0113 10.08 64.7803 8.32 66.9512 8.32C69.1222 8.32 70.8911 10.08 70.8911 12.24C70.8911 14.4 69.1222 16.16 66.9512 16.16C65.9863 16.16 65.1019 15.8133 64.405 15.2267V19.5467Z" fill="white"/>
<path fill-rule="evenodd" clip-rule="evenodd" d="M78.3418 4.85327H82.0673C85.2567 4.85327 88.1781 5.75994 88.1781 9.25327C88.1781 12.6666 85.6855 13.8933 82.5229 13.8933H81.29V19.4399H78.3418V4.85327ZM81.29 11.5999H82.3085C83.7826 11.5999 85.0959 11.1199 85.0959 9.43994C85.0959 7.73327 83.8094 7.1466 82.3085 7.1466H81.29V11.5999Z" fill="white"/>
<path fill-rule="evenodd" clip-rule="evenodd" d="M89.3305 9.25342C90.4293 8.74676 91.9034 8.42676 93.0827 8.42676C96.3794 8.42676 96.701 9.78676 96.701 12.9601V14.3468C96.701 15.4401 96.7278 16.2401 96.7546 17.0401C96.7814 17.8668 96.8886 18.6134 96.9422 19.4401H94.396C94.2888 18.8801 94.2888 18.1601 94.262 17.8401H94.2084C93.5652 19.0401 92.1447 19.7068 90.8582 19.7068C88.9552 19.7068 87.0791 18.5601 87.0791 16.5068C87.0791 14.9068 87.8564 13.9468 88.9284 13.4401C90.0005 12.9334 91.3942 12.8268 92.5735 12.8268H94.128C94.128 11.0934 94.396 10.5068 92.7343 10.5068C91.5282 10.5068 90.3489 10.9601 89.3841 11.6801L89.3305 9.25342ZM91.5818 17.6534C92.4395 17.6534 93.1095 17.2801 93.5384 16.6934C93.994 16.0801 94.128 15.3068 94.128 14.4801H92.8951C91.6354 14.4801 89.7593 14.6934 89.7593 16.3468C89.8129 17.2534 90.5901 17.6534 91.5818 17.6534Z" fill="white"/>
<path fill-rule="evenodd" clip-rule="evenodd" d="M98.9526 19.4666H101.767V8.69322H98.9526V19.4666ZM100.373 4.05322C101.124 4.05322 101.713 4.66656 101.713 5.38656C101.713 6.10656 101.097 6.71989 100.373 6.71989C99.6495 6.71989 99.033 6.10656 99.033 5.38656C99.033 4.63989 99.6227 4.05322 100.373 4.05322Z" fill="white"/>
<path fill-rule="evenodd" clip-rule="evenodd" d="M103.911 8.69337H106.565V10.16H106.618C107.503 8.93337 108.709 8.45337 110.183 8.45337C112.756 8.45337 113.855 10.2667 113.855 12.6667V19.4667H111.04V13.7334C111.04 12.4 111.014 10.64 109.218 10.64C107.181 10.64 106.725 12.8267 106.725 14.2134V19.4667H103.911V8.69337Z" fill="white"/>
<path fill-rule="evenodd" clip-rule="evenodd" d="M116.615 10.72H114.524L114.739 8.66667H116.615V7.36L119.429 4.58667V8.69334H121.922L121.707 10.7467H119.429V15.76C119.429 16.6667 119.67 17.52 120.742 17.52C121.252 17.52 121.761 17.4133 122.056 17.2267L122.109 19.44C121.52 19.6 120.876 19.7067 120.046 19.7067C117.848 19.7067 116.615 18.3467 116.615 16.2133V10.72Z" fill="white"/>
<path fill-rule="evenodd" clip-rule="evenodd" d="M129.748 10.9332C128.89 10.6398 128.461 10.4798 127.443 10.4798C126.692 10.4798 125.781 10.7465 125.781 11.6798C125.781 13.3865 130.659 12.2932 130.659 16.1865C130.659 18.6932 128.408 19.7065 126.13 19.7065C125.058 19.7065 123.959 19.5198 122.94 19.2532L123.315 16.9598C124.2 17.3865 124.924 17.6532 125.862 17.6532C126.585 17.6532 127.711 17.3865 127.711 16.3465C127.711 14.2398 122.806 15.6798 122.806 11.7865C122.806 9.46651 124.843 8.42651 127.041 8.42651C128.354 8.42651 129.212 8.63985 130.096 8.82651L129.748 10.9332Z" fill="white"/>
<path fill-rule="evenodd" clip-rule="evenodd" d="M131.41 9.73332C131.41 10.56 132.08 11.2267 132.911 11.2267C133.741 11.2267 134.411 10.56 134.411 9.73332C134.411 8.90666 133.741 8.23999 132.911 8.23999C132.107 8.23999 131.41 8.90666 131.41 9.73332ZM131.597 9.73332C131.597 9.01332 132.187 8.42666 132.911 8.42666C133.634 8.42666 134.224 9.01332 134.224 9.73332C134.224 10.4533 133.634 11.04 132.911 11.04C132.187 11.04 131.597 10.4533 131.597 9.73332Z" fill="white"/>
<path fill-rule="evenodd" clip-rule="evenodd" d="M132.321 8.95996H133.071C133.42 8.95996 133.58 9.11996 133.58 9.38663C133.58 9.67996 133.366 9.75996 133.312 9.78663C133.42 9.81329 133.554 9.86663 133.554 10.1066C133.554 10.2933 133.58 10.4533 133.634 10.5333H133.339C133.286 10.4533 133.286 10.3733 133.286 10.2933C133.286 9.99996 133.232 9.89329 132.964 9.89329H132.562V10.5333H132.294V8.95996H132.321ZM132.616 9.65329H133.071C133.259 9.65329 133.339 9.57329 133.339 9.41329C133.339 9.22663 133.205 9.17329 133.071 9.17329H132.616V9.65329Z" fill="white"/>
</g>
</svg>
