<svg width="44" height="44" viewBox="0 0 44 44" fill="none" xmlns="http://www.w3.org/2000/svg">
<mask id="mask0" mask-type="alpha" maskUnits="userSpaceOnUse" x="0" y="0" width="44" height="44">
<path fill-rule="evenodd" clip-rule="evenodd" d="M0.75 0.625H43.5V43.375H0.75V0.625Z" fill="white"/>
</mask>
<g mask="url(#mask0)">
<path fill-rule="evenodd" clip-rule="evenodd" d="M38.033 19.6582C38.0322 19.6575 38.0313 19.6566 38.0305 19.6558L23.3439 4.97116C22.7178 4.34495 21.8855 4 21.0003 4C20.1149 4 19.2826 4.34467 18.6564 4.97095L3.97733 19.6481C3.97241 19.653 3.96749 19.6582 3.96257 19.6632C2.67698 20.956 2.67923 23.0536 3.96882 24.3431C4.55803 24.9325 5.33626 25.2739 6.16828 25.3096C6.20204 25.3129 6.23614 25.3146 6.27046 25.3146H6.8558V36.1216C6.8558 38.26 8.59593 40 10.7352 40H16.4811C17.0634 40 17.5359 39.5279 17.5359 38.9453V30.4727C17.5359 29.4968 18.3297 28.703 19.3057 28.703H22.6947C23.6707 28.703 24.4646 29.4968 24.4646 30.4727V38.9453C24.4646 39.5279 24.9368 40 25.5194 40H31.2652C33.4045 40 35.1446 38.26 35.1446 36.1216V25.3146H35.6874C36.5725 25.3146 37.4048 24.9699 38.0313 24.3437C39.3223 23.0519 39.3229 20.9508 38.033 19.6582Z" fill="#9BDDCE"/>
</g>
</svg>
