<svg width="70" height="72" viewBox="0 0 70 72" fill="none" xmlns="http://www.w3.org/2000/svg">
<mask id="mask0" mask-type="alpha" maskUnits="userSpaceOnUse" x="7" y="9" width="63" height="63">
<path fill-rule="evenodd" clip-rule="evenodd" d="M7 9H70V72H7V9Z" fill="white"/>
</mask>
<g mask="url(#mask0)">
<path fill-rule="evenodd" clip-rule="evenodd" d="M62.5763 37.0524C62.5752 37.0513 62.5739 37.05 62.5727 37.0488L40.9507 15.4298C40.029 14.5078 38.8037 14 37.5004 14C36.197 14 34.9716 14.5074 34.0496 15.4294L12.4389 37.0375C12.4316 37.0448 12.4244 37.0524 12.4171 37.0598C10.5244 38.963 10.5278 42.0511 12.4263 43.9496C13.2938 44.8173 14.4395 45.3199 15.6644 45.3725C15.7141 45.3773 15.7643 45.3798 15.8148 45.3798H16.6766V61.2901C16.6766 64.4384 19.2385 67 22.3879 67H30.8472C31.7045 67 32.4001 66.3049 32.4001 65.4473V52.9736C32.4001 51.5369 33.5688 50.3684 35.0056 50.3684H39.995C41.4319 50.3684 42.6006 51.5369 42.6006 52.9736V65.4473C42.6006 66.3049 43.2958 67 44.1535 67H52.6127C55.7622 67 58.3241 64.4384 58.3241 61.2901V45.3798H59.1232C60.4262 45.3798 61.6515 44.8723 62.5739 43.9504C64.4746 42.0487 64.4754 38.9553 62.5763 37.0524Z" fill="white"/>
</g>
<path fill-rule="evenodd" clip-rule="evenodd" d="M31 11.4298C30.8405 11.6474 30.7061 11.8899 30.5179 12.0789C27.96 14.6478 25.395 17.2098 22.8302 19.772C22.7363 19.8658 22.6266 19.944 22.5595 20C18.7017 16.1368 14.8653 12.2948 11 8.42421C11.117 8.30079 11.267 8.13487 11.4248 7.97687C13.8594 5.54092 16.2926 3.10361 18.7343 0.674762C18.9874 0.423008 19.2924 0.2236 19.5733 0H20.1174C20.1673 0.0423691 20.2143 0.0887018 20.2674 0.126424C21.7707 1.19631 22.0232 1.71855 21.6357 2.94793C21.6291 2.96871 21.6808 3.0078 21.7048 3.03773C22.7848 2.60365 22.8273 2.6124 23.6549 3.43955C24.5039 4.28816 25.3531 5.1365 26.2014 5.98566C27.1687 6.95373 27.1799 7.08166 26.4149 8.23109C25.8503 9.07929 25.2875 9.92859 24.7238 10.7773C25.7882 10.1876 26.7619 9.53469 27.7295 8.87278C28.1909 8.55706 28.6642 8.47642 29.0842 8.88822C29.7427 9.53373 30.3633 10.2178 31 10.8856V11.4298Z" fill="#FEFEFE"/>
<mask id="mask1" mask-type="alpha" maskUnits="userSpaceOnUse" x="0" y="10" width="21" height="21">
<path fill-rule="evenodd" clip-rule="evenodd" d="M3.05176e-05 10.1146H20.8728V31H3.05176e-05V10.1146Z" fill="white"/>
</mask>
<g mask="url(#mask1)">
<path fill-rule="evenodd" clip-rule="evenodd" d="M3.88621 28.6375C3.0832 28.6622 2.37755 28.0007 2.34584 27.194C2.3133 26.3672 3.0113 25.6311 3.83614 25.6223C4.608 25.614 5.34022 26.3303 5.35913 27.1123C5.37804 27.8941 4.68365 28.6132 3.88621 28.6375M9.0301 10.1146C8.29649 10.8582 7.50669 11.6303 6.75153 12.4351C6.29481 12.9217 6.33723 13.5235 6.83038 14.0343C7.45537 14.6814 8.10179 15.3078 8.73568 15.9466C10.0637 17.2846 9.89763 18.6065 8.31498 19.6409C6.08022 21.1015 3.8481 22.5673 1.64755 24.0786C0.434838 24.9115 -0.141897 26.1341 0.0297191 27.602C0.221361 29.2415 1.16052 30.3619 2.74637 30.832C4.34737 31.3066 5.89539 30.7648 6.87961 29.346C8.4535 27.0773 9.95688 24.7598 11.4861 22.4603C12.3651 21.139 13.7422 20.9805 14.8703 22.0858C15.5789 22.7802 16.2654 23.4975 16.9831 24.1818C17.4906 24.6655 18.0826 24.673 18.5823 24.1999C19.3684 23.4557 20.1287 22.6845 20.8728 21.9516C16.893 17.9737 12.9834 14.0659 9.0301 10.1146" fill="#FEFEFE"/>
</g>
</svg>
