<svg width="66" height="66" viewBox="0 0 66 66" fill="none" xmlns="http://www.w3.org/2000/svg">
<mask id="mask0" mask-type="alpha" maskUnits="userSpaceOnUse" x="0" y="0" width="66" height="66">
<path fill-rule="evenodd" clip-rule="evenodd" d="M0 0H66V66H0V0Z" fill="white"/>
</mask>
<g mask="url(#mask0)">
<path fill-rule="evenodd" clip-rule="evenodd" d="M57.8353 29.831C57.8341 29.8298 57.8328 29.8285 57.8315 29.8272L35.3368 7.33558C34.3779 6.37646 33.1031 5.84811 31.7472 5.84811C30.3912 5.84811 29.1164 6.37603 28.1572 7.33526L5.67414 29.8155C5.6666 29.823 5.65906 29.831 5.65152 29.8386C3.68246 31.8187 3.68591 35.0314 5.66111 37.0065C6.56357 37.9093 7.75554 38.4322 9.0299 38.4869C9.0816 38.4919 9.13384 38.4945 9.1864 38.4945H10.0829V55.047C10.0829 58.3224 12.7482 60.9874 16.0248 60.9874H24.8255C25.7174 60.9874 26.441 60.2642 26.441 59.3719V46.3948C26.441 44.9002 27.6569 43.6844 29.1518 43.6844H34.3426C35.8374 43.6844 37.0533 44.9002 37.0533 46.3948V59.3719C37.0533 60.2642 37.7765 60.9874 38.6689 60.9874H47.4696C50.7462 60.9874 53.4114 58.3224 53.4114 55.047V38.4945H54.2428C55.5984 38.4945 56.8732 37.9665 57.8328 37.0074C59.8102 35.0289 59.811 31.8107 57.8353 29.831Z" fill="white"/>
</g>
<rect x="23" y="41" width="19" height="20" fill="white"/>
<path fill-rule="evenodd" clip-rule="evenodd" d="M16 34.0314C16.1679 34.2604 16.3094 34.5157 16.5074 34.7146C19.2001 37.4188 21.9 40.1156 24.5998 42.8127C24.6986 42.9114 24.8141 42.9936 24.8847 43.0526C28.9456 38.9861 32.9839 34.9419 37.0526 30.8676C36.9295 30.7377 36.7716 30.563 36.6055 30.3967C34.0427 27.8326 31.4814 25.267 28.9112 22.7103C28.6449 22.4453 28.3238 22.2354 28.0281 22H27.4554C27.4029 22.0446 27.3534 22.0934 27.2975 22.1331C25.7151 23.2593 25.4493 23.809 25.8572 25.1031C25.8641 25.125 25.8097 25.1661 25.7844 25.1976C24.6476 24.7407 24.6028 24.7499 23.7317 25.6206C22.8381 26.5139 21.9442 27.4068 21.0511 28.3007C20.033 29.3197 20.0212 29.4544 20.8265 30.6643C21.4208 31.5571 22.0132 32.4511 22.6065 33.3446C21.4861 32.7238 20.4611 32.0365 19.4427 31.3398C18.957 31.0074 18.4588 30.9225 18.0166 31.356C17.3235 32.0355 16.6703 32.7556 16 33.4585V34.0314Z" fill="#2D4986"/>
<mask id="mask1" mask-type="alpha" maskUnits="userSpaceOnUse" x="26" y="32" width="22" height="22">
<path fill-rule="evenodd" clip-rule="evenodd" d="M48 32.2247H26.2378V54H48V32.2247Z" fill="white"/>
</mask>
<g mask="url(#mask1)">
<path fill-rule="evenodd" clip-rule="evenodd" d="M43.9482 51.5369C44.7854 51.5625 45.5212 50.8729 45.5542 50.0318C45.5881 49.1698 44.8604 48.4023 44.0004 48.3932C43.1957 48.3845 42.4323 49.1314 42.4125 49.9467C42.3928 50.7617 43.1168 51.5115 43.9482 51.5369M38.5852 32.2247C39.35 33 40.1735 33.805 40.9608 34.6441C41.437 35.1515 41.3928 35.7789 40.8786 36.3115C40.227 36.9862 39.553 37.6392 38.8921 38.3052C37.5075 39.7002 37.6807 41.0784 39.3307 42.1569C41.6607 43.6797 43.9879 45.208 46.2823 46.7837C47.5466 47.6521 48.1479 48.9268 47.969 50.4572C47.7692 52.1666 46.79 53.3347 45.1366 53.8248C43.4674 54.3197 41.8534 53.7548 40.8273 52.2755C39.1863 49.9101 37.6189 47.4939 36.0245 45.0965C35.1081 43.7189 33.6723 43.5536 32.4961 44.706C31.7573 45.43 31.0416 46.1779 30.2933 46.8913C29.7642 47.3956 29.1469 47.4034 28.626 46.9101C27.8064 46.1342 27.0137 45.3302 26.2378 44.5661C30.3873 40.4187 34.4634 36.3444 38.5852 32.2247" fill="#2D4986"/>
</g>
</svg>
