<svg width="32" height="32" viewBox="0 0 32 32" fill="none" xmlns="http://www.w3.org/2000/svg">
<path fill-rule="evenodd" clip-rule="evenodd" d="M31.1404 13.9184C31.1397 13.9178 31.139 13.917 31.1382 13.9163L18.0834 0.86325C17.5269 0.306625 16.7871 0 16.0002 0C15.2133 0 14.4734 0.306375 13.9168 0.863063L0.86874 13.9094C0.864364 13.9138 0.859989 13.9184 0.855613 13.9229C-0.287129 15.072 -0.285128 16.9365 0.861176 18.0828C1.38492 18.6067 2.07668 18.9101 2.81625 18.9419C2.84625 18.9448 2.87657 18.9463 2.90707 18.9463H3.42738V28.5525C3.42738 30.4534 4.97416 32 6.87573 32H11.9832C12.5008 32 12.9208 31.5803 12.9208 31.0625V23.5312C12.9208 22.6638 13.6264 21.9583 14.4939 21.9583H17.5064C18.374 21.9583 19.0796 22.6638 19.0796 23.5312V31.0625C19.0796 31.5803 19.4993 32 20.0172 32H25.1247C27.0262 32 28.573 30.4534 28.573 28.5525V18.9463H29.0555C29.8422 18.9463 30.582 18.6399 31.139 18.0833C32.2865 16.9351 32.287 15.0674 31.1404 13.9184Z" fill="#2D4986"/>
</svg>
