<svg width="18" height="18" viewBox="0 0 18 18" fill="none" xmlns="http://www.w3.org/2000/svg">
<path fill-rule="evenodd" clip-rule="evenodd" d="M4.99499 14C3.88822 14 3 14.895 3 16C3 17.104 3.88822 18 4.99499 18C6.10276 18 7 17.104 7 16C7 14.895 6.10276 14 4.99499 14ZM13.995 14C12.8882 14 12 14.895 12 16C12 17.104 12.8882 18 13.995 18C15.1028 18 16 17.104 16 16C16 14.895 15.1028 14 13.995 14ZM1.80072 0H0V1.86573H1.80072L5.0386 8.94787L3.82102 11.2355C3.68063 11.5033 3.60054 11.8095 3.60054 12.1333C3.60054 13.1637 4.40686 14 5.40036 14H16.1993V12.1333H5.78102C5.65683 12.1333 5.55694 12.0297 5.55694 11.9L5.58394 11.7871L6.39206 10.2667H13.0955C13.7722 10.2667 14.3626 9.87933 14.6703 9.30627L17.8866 3.24987C17.9586 3.11733 18 2.96333 18 2.8C18 2.28387 17.5968 1.86573 17.0992 1.86573H3.79222L3.42686 1.06867C3.13979 0.4368 2.51885 0 1.80072 0Z" fill="white"/>
</svg>
